<svg width="122" height="42" viewBox="0 0 123 43" fill="none" xmlns="http://www.w3.org/2000/svg">
    <g clip-path="url(#clip0_0_1)">
        <path
            d="M8.95917 13.3411C8.54892 13.3411 8.33173 13.317 8.30759 13.2687C8.29553 13.2446 8.2895 13.1963 8.2895 13.1239C8.2895 12.8343 8.35586 12.6352 8.48859 12.5266C8.51272 12.5146 8.61528 12.5085 8.79628 12.5085C9.29099 12.5326 10.1115 12.5447 11.2578 12.5447C11.668 12.5447 12.0481 12.5447 12.398 12.5447C12.748 12.5447 13.0195 12.5387 13.2125 12.5266C13.4056 12.5146 13.5262 12.5146 13.5745 12.5266C13.7676 12.5266 13.8641 12.5869 13.8641 12.7076C13.8641 12.7317 13.852 12.8162 13.8279 12.961C13.7676 13.1661 13.7072 13.2868 13.6469 13.323H13.6107C13.5866 13.323 13.5564 13.323 13.5202 13.323C13.484 13.323 13.4418 13.323 13.3935 13.323C13.3452 13.323 13.2909 13.329 13.2306 13.3411C13.1703 13.3532 13.116 13.3532 13.0677 13.3411C12.5971 13.3532 12.2955 13.3713 12.1628 13.3954C12.03 13.4195 11.9214 13.4859 11.837 13.5945C11.8008 13.6427 11.6077 14.3848 11.2578 15.8207C11.1733 16.1344 11.0828 16.4843 10.9863 16.8705C10.8898 17.2566 10.8174 17.5401 10.7691 17.7211L10.6967 17.9926C10.6967 18.0168 11.5715 18.0288 13.3211 18.0288H15.9455L15.9636 17.9745C15.9636 17.9383 16.1506 17.1962 16.5247 15.7483C16.8626 14.3607 17.0315 13.6186 17.0315 13.5221C17.0315 13.4256 16.6876 13.3652 15.9998 13.3411C15.7223 13.3411 15.5413 13.329 15.4568 13.3049C15.3724 13.2808 15.3301 13.2265 15.3301 13.142C15.3301 13.1179 15.3422 13.0455 15.3663 12.9248C15.4146 12.7197 15.4508 12.605 15.4749 12.5809C15.4991 12.5568 15.5956 12.5387 15.7645 12.5266C15.8249 12.5266 16.0782 12.5326 16.5247 12.5447C16.9711 12.5568 17.5383 12.5628 18.226 12.5628C18.9741 12.5628 19.5473 12.5568 19.9455 12.5447C20.3437 12.5326 20.5609 12.5266 20.597 12.5266C20.8022 12.5266 20.9047 12.5869 20.9047 12.7076C20.9047 13.0334 20.8323 13.2385 20.6875 13.323H20.6513C20.6272 13.323 20.597 13.323 20.5609 13.323C20.5247 13.323 20.4824 13.323 20.4342 13.323C20.3859 13.323 20.3316 13.329 20.2713 13.3411C20.2109 13.3532 20.1566 13.3532 20.1084 13.3411C19.6378 13.3532 19.3361 13.3713 19.2034 13.3954C19.0707 13.4195 18.9621 13.4859 18.8776 13.5945C18.8414 13.6548 18.407 15.3622 17.5745 18.7166C16.7419 22.071 16.3196 23.7723 16.3075 23.8206C16.3075 23.9051 16.3316 23.9473 16.3799 23.9473C16.4764 23.9835 16.8022 24.0137 17.3573 24.0378H17.9183C17.9907 24.1343 18.0269 24.1886 18.0269 24.2007C18.0269 24.2128 18.0088 24.3214 17.9726 24.5265C17.9244 24.6833 17.864 24.798 17.7917 24.8704H17.5202C17.0737 24.8462 16.2653 24.8342 15.0948 24.8342C14.6846 24.8342 14.3045 24.8342 13.9546 24.8342C13.6047 24.8342 13.3271 24.8342 13.122 24.8342C12.9169 24.8342 12.7902 24.8402 12.7419 24.8523C12.5368 24.8523 12.4342 24.798 12.4342 24.6894C12.4342 24.629 12.4523 24.5446 12.4885 24.436C12.5489 24.2067 12.6092 24.08 12.6695 24.0559C12.7178 24.0438 12.8083 24.0378 12.941 24.0378H13.0496C13.3754 24.0378 13.7374 24.0197 14.1356 23.9835C14.208 23.9714 14.2562 23.9654 14.2804 23.9654C14.3045 23.9654 14.3407 23.9352 14.389 23.8749C14.4372 23.8146 14.4734 23.7603 14.4976 23.712C14.5217 23.6637 14.5579 23.5552 14.6062 23.3862C14.6544 23.2173 14.6967 23.0484 14.7329 22.8794C14.7691 22.7105 14.8354 22.4511 14.932 22.1012C15.0164 21.7633 15.0828 21.4918 15.131 21.2867C15.5292 19.694 15.7283 18.8916 15.7283 18.8795C15.7283 18.8674 14.8535 18.8614 13.1039 18.8614H10.4795L9.88224 21.3048C9.47199 22.9217 9.26686 23.7603 9.26686 23.8206C9.26686 23.9051 9.31512 23.9594 9.41165 23.9835C9.50818 24.0076 9.80984 24.0257 10.3166 24.0378H10.8777C10.9501 24.1343 10.9863 24.1886 10.9863 24.2007C10.9863 24.2128 10.9682 24.3214 10.932 24.5265C10.8837 24.6833 10.8234 24.798 10.751 24.8704H10.4795C10.0331 24.8462 9.22463 24.8342 8.0542 24.8342C7.64395 24.8342 7.26387 24.8342 6.91395 24.8342C6.56402 24.8342 6.2865 24.8342 6.08138 24.8342C5.87625 24.8342 5.74955 24.8402 5.70129 24.8523C5.49616 24.8523 5.3936 24.798 5.3936 24.6894C5.3936 24.6652 5.4117 24.5808 5.4479 24.436C5.50823 24.2067 5.56856 24.08 5.62889 24.0559C5.67716 24.0438 5.76765 24.0378 5.90038 24.0378H6.00898C6.33477 24.0378 6.69675 24.0197 7.09494 23.9835C7.26387 23.9473 7.3785 23.8749 7.43883 23.7663C7.47503 23.718 7.90941 22.0408 8.74198 18.7347C9.57455 15.4285 9.99083 13.685 9.99083 13.504C9.99083 13.4195 9.64695 13.3652 8.95917 13.3411Z"
            fill="black" />
        <path
            d="M28.2169 12.8343C27.3964 12.8343 26.7327 12.5628 26.2259 12.0198C25.7192 11.4769 25.4597 10.7951 25.4477 9.97461C25.4477 8.76799 25.8881 7.64583 26.7689 6.60813C27.6498 5.57043 28.6754 4.98522 29.8458 4.85249C29.8579 4.84043 30.7025 4.83439 32.3797 4.83439H34.8774C34.8895 4.84646 34.9076 4.85853 34.9317 4.87059C34.9559 4.88266 34.98 4.89473 35.0041 4.90679C35.0283 4.91886 35.0464 4.93093 35.0584 4.94299C35.0705 4.95506 35.0886 4.97316 35.1127 4.99729C35.1369 5.02142 35.1489 5.03349 35.1489 5.03349C35.1489 5.03349 35.161 5.05762 35.1851 5.10589C35.2093 5.15415 35.2153 5.17828 35.2032 5.17828C35.1912 5.17828 35.1972 5.20845 35.2213 5.26878C35.2455 5.32911 35.2515 5.36531 35.2394 5.37738C35.2394 5.90829 34.8473 6.17375 34.063 6.17375C33.9785 6.17375 33.8759 6.17375 33.7553 6.17375C33.6346 6.17375 33.5502 6.16771 33.5019 6.15565H32.4159L32.5064 6.33664C32.7236 6.79516 32.8322 7.30797 32.8322 7.87508C32.8322 9.20237 32.3496 10.3607 31.3843 11.3502C30.419 12.3396 29.3632 12.8343 28.2169 12.8343ZM31.4205 7.60359C31.4205 6.6383 30.9076 6.15565 29.882 6.15565C28.3858 6.15565 27.4145 7.20541 26.968 9.30493C26.956 9.3532 26.9499 9.3894 26.9499 9.41353C26.8534 9.85998 26.8051 10.228 26.8051 10.5176C26.8051 11.1209 26.956 11.5432 27.2576 11.7845C27.5593 12.0259 27.9032 12.1526 28.2893 12.1646C28.9409 12.1646 29.5381 11.8811 30.0811 11.314C30.431 10.952 30.7146 10.4693 30.9318 9.86601C31.149 9.2627 31.2817 8.78005 31.33 8.41807C31.3782 8.05608 31.4084 7.78459 31.4205 7.60359Z"
            fill="black" />
        <path
            d="M26.3526 32.092C26.3647 32.0558 26.3768 32.0075 26.3888 31.9472C26.4009 31.8869 26.4311 31.7542 26.4793 31.549C26.5276 31.3439 26.5879 31.1569 26.6603 30.9879C26.7327 30.819 26.8232 30.6199 26.9318 30.3907C27.0404 30.1614 27.1611 29.9804 27.2938 29.8477C27.4265 29.715 27.5834 29.5822 27.7644 29.4495C27.9454 29.3168 28.1445 29.2625 28.3617 29.2866C28.7116 29.2866 29.0193 29.359 29.2847 29.5038C29.5502 29.6486 29.7372 29.7813 29.8458 29.902C29.9544 30.0226 30.0208 30.1433 30.0449 30.264C30.069 30.3364 30.0871 30.3726 30.0992 30.3726C30.1113 30.3726 30.1595 30.3303 30.244 30.2459C30.8232 29.6184 31.4929 29.3047 32.253 29.3047H32.3073C32.8865 29.3047 33.3209 29.5521 33.6105 30.0468C33.707 30.276 33.7553 30.4993 33.7553 30.7165C33.7553 31.0784 33.6768 31.368 33.52 31.5852C33.3631 31.8024 33.2063 31.9412 33.0494 32.0015C32.8925 32.0618 32.7417 32.086 32.5969 32.0739C32.3556 32.0739 32.1625 32.0075 32.0177 31.8748C31.8729 31.7421 31.8005 31.5671 31.8005 31.3499C31.8005 30.7708 32.1384 30.3846 32.8141 30.1916C32.5486 30.0347 32.3315 29.9563 32.1625 29.9563C31.4868 29.9563 30.8654 30.4027 30.2983 31.2956C30.1776 31.4887 30.0871 31.6878 30.0268 31.8929C29.9665 32.098 29.7613 32.9004 29.4114 34.3001C29.0012 35.9894 28.7659 36.8883 28.7056 36.9969C28.5487 37.3227 28.2893 37.4856 27.9273 37.4856C27.7704 37.4856 27.6437 37.4494 27.5472 37.377C27.4507 37.3046 27.3843 37.2322 27.3481 37.1598C27.3119 37.0874 27.2998 37.0271 27.3119 36.9788C27.3119 36.822 27.5532 35.7843 28.0359 33.8657C28.5185 31.9472 28.7599 30.8794 28.7599 30.6622C28.7599 30.1916 28.603 29.9563 28.2893 29.9563C28.0359 29.9563 27.8187 30.1252 27.6377 30.4631C27.4567 30.8009 27.3119 31.1689 27.2033 31.5671C27.0947 31.9653 27.0283 32.1825 27.0042 32.2187C26.9801 32.2428 26.8836 32.2549 26.7146 32.2549H26.4612C26.3888 32.1825 26.3526 32.1282 26.3526 32.092Z"
            fill="black" />
        <path d="M37.0313 20.8885H23.0767V19.8026H37.0313V20.8885Z" fill="black" />
        <path
            d="M41.5742 19.6397C41.5742 19.2535 41.6707 18.8614 41.8638 18.4632C42.0568 18.065 42.3947 17.697 42.8773 17.3591C43.36 17.0213 43.9452 16.8584 44.633 16.8705C45.3811 16.8705 45.9241 17.0334 46.2619 17.3591C46.5998 17.6849 46.7747 18.0469 46.7868 18.4451C46.7868 18.8312 46.6842 19.1148 46.4791 19.2958C46.274 19.4768 46.0447 19.5733 45.7913 19.5854C45.6345 19.5854 45.4897 19.5371 45.3569 19.4406C45.2242 19.344 45.1518 19.1872 45.1398 18.97C45.1398 18.7769 45.1941 18.608 45.3027 18.4632C45.4112 18.3184 45.5138 18.2098 45.6103 18.1374C45.7069 18.065 45.7853 18.0288 45.8456 18.0288C45.8577 18.0288 45.8637 18.0228 45.8637 18.0107C45.8637 17.9745 45.8215 17.9202 45.737 17.8478C45.6526 17.7754 45.5017 17.7091 45.2846 17.6487C45.0674 17.5884 44.8321 17.5522 44.5787 17.5401C43.9995 17.5401 43.5772 17.697 43.3117 18.0107C43.0463 18.3244 42.9075 18.6442 42.8954 18.97C42.8954 19.2716 43.0101 19.4828 43.2393 19.6035C43.4686 19.7241 43.8004 19.8267 44.2348 19.9111C44.6692 19.9956 44.9829 20.0861 45.176 20.1826C45.9723 20.5326 46.3705 21.1117 46.3705 21.9202C46.3705 22.258 46.3041 22.5959 46.1714 22.9337C46.0387 23.2716 45.8396 23.6094 45.5741 23.9473C45.3087 24.2852 44.9286 24.5506 44.4339 24.7437C43.9392 24.9367 43.3721 25.0393 42.7325 25.0514C41.8034 25.0514 41.1458 24.8764 40.7597 24.5265C40.3736 24.1766 40.1745 23.7663 40.1624 23.2957C40.1624 22.8251 40.2891 22.4873 40.5425 22.2822C40.7959 22.077 41.0614 21.9745 41.3389 21.9745C41.5199 21.9745 41.6888 22.0288 41.8457 22.1374C42.0025 22.246 42.087 22.433 42.0991 22.6984C42.0991 23.0122 41.9905 23.2776 41.7733 23.4948C41.5561 23.712 41.3691 23.8206 41.2122 23.8206C41.1881 23.8327 41.17 23.8387 41.1579 23.8387C41.1458 23.8387 41.1398 23.8508 41.1398 23.8749C41.1519 23.9111 41.2001 23.9594 41.2846 24.0197C41.3691 24.08 41.5561 24.1585 41.8457 24.255C42.1353 24.3515 42.4671 24.3938 42.8411 24.3817C43.2755 24.3817 43.6496 24.3153 43.9633 24.1826C44.277 24.0499 44.5063 23.8809 44.6511 23.6758C44.7959 23.4707 44.8984 23.2837 44.9588 23.1147C45.0191 22.9458 45.0493 22.795 45.0493 22.6622C45.0493 22.3244 44.9226 22.071 44.6692 21.9021C44.4158 21.7331 44.1262 21.6306 43.8004 21.5944C43.4746 21.5582 43.1187 21.4677 42.7325 21.3229C42.3464 21.1781 42.0629 20.9669 41.8819 20.6894C41.6767 20.3878 41.5742 20.0378 41.5742 19.6397Z"
            fill="black" />
        <path
            d="M48.3976 19.7302C48.1442 19.7302 48.0176 19.6698 48.0176 19.5492C48.0176 19.4647 48.1804 19.1992 48.5062 18.7528C48.832 18.3063 49.1578 17.9444 49.4836 17.6668C49.9059 17.341 50.2981 17.154 50.6601 17.1058C50.7325 17.0816 51.746 17.0696 53.7007 17.0696C55.6313 17.0696 56.6268 17.0816 56.6871 17.1058C56.9285 17.1661 57.0491 17.329 57.0491 17.5944C57.0491 17.7634 56.9948 17.9202 56.8862 18.065C56.7776 18.2098 56.6389 18.3063 56.4699 18.3546C56.3975 18.3787 55.8184 18.3908 54.7324 18.3908C53.6464 18.3908 53.1035 18.4029 53.1035 18.427C53.0914 18.4391 52.9949 18.9338 52.8139 19.9111C52.6329 20.8885 52.4398 21.884 52.2347 22.8975C52.0296 23.9111 51.921 24.4481 51.9089 24.5084C51.8486 24.6894 51.74 24.8342 51.5831 24.9428C51.4263 25.0514 51.2513 25.1057 51.0582 25.1057C50.6601 25.1057 50.461 24.9066 50.461 24.5084V24.3274L51.3659 21.3953C51.4987 20.9609 51.6435 20.4783 51.8003 19.9473C51.9572 19.4164 52.0839 19.0303 52.1804 18.789L52.289 18.4089C52.289 18.3968 52.0115 18.3908 51.4564 18.3908C51.4323 18.3908 51.3659 18.3908 51.2573 18.3908C51.1487 18.3908 51.0643 18.3848 51.0039 18.3727C50.0628 18.3727 49.3267 18.7588 48.7958 19.5311C48.7355 19.6276 48.6872 19.6819 48.651 19.694C48.6148 19.706 48.5304 19.7181 48.3976 19.7302Z"
            fill="black" />
        <path
            d="M62.0663 14.3728C62.0783 14.2883 62.1145 14.2159 62.1749 14.1556C62.2352 14.0952 62.3197 14.059 62.4282 14.047C62.561 14.047 62.6877 14.1556 62.8083 14.3728L67.0979 24.0016L71.3874 14.3728C71.496 14.1797 71.5925 14.0771 71.677 14.0651C71.7011 14.053 71.7313 14.047 71.7675 14.047C71.9847 14.047 72.1054 14.1556 72.1295 14.3728C72.1295 14.4451 71.7373 15.3742 70.953 17.16C70.1687 18.9459 69.3784 20.7196 68.582 22.4813C67.7857 24.2429 67.3814 25.1298 67.3694 25.1419C67.309 25.2263 67.2185 25.2686 67.0979 25.2686C66.9772 25.2686 66.8867 25.2263 66.8264 25.1419C66.8143 25.1298 66.4161 24.249 65.6318 22.4994C64.8475 20.7498 64.0572 18.976 63.2608 17.1781C62.4644 15.3803 62.0663 14.4451 62.0663 14.3728Z"
            fill="black" />
        <path
            d="M82.323 13.504C82.323 13.4195 81.9792 13.3652 81.2914 13.3411C81.0139 13.3411 80.8329 13.3351 80.7484 13.323C80.6639 13.3109 80.6217 13.2566 80.6217 13.1601C80.6217 13.136 80.6338 13.0515 80.6579 12.9067C80.7303 12.6654 80.7906 12.5387 80.8389 12.5266C80.863 12.5146 80.9294 12.5085 81.038 12.5085H81.1285C81.6232 12.5326 82.4437 12.5447 83.59 12.5447C84.0003 12.5447 84.3803 12.5447 84.7303 12.5447C85.0802 12.5447 85.3517 12.5387 85.5447 12.5266C85.7378 12.5146 85.8585 12.5146 85.9067 12.5266C86.1118 12.5266 86.2144 12.5749 86.2144 12.6714C86.2144 12.7317 86.1963 12.8162 86.1601 12.9248C86.148 12.9489 86.142 12.9851 86.142 13.0334C86.142 13.0817 86.136 13.1179 86.1239 13.142C86.1118 13.1661 86.0998 13.1903 86.0877 13.2144C86.0756 13.2385 86.0575 13.2566 86.0334 13.2687C86.0093 13.2808 85.9851 13.2928 85.961 13.3049C85.9369 13.317 85.8947 13.323 85.8343 13.323C85.774 13.323 85.7197 13.329 85.6714 13.3411C85.6232 13.3532 85.5387 13.3532 85.418 13.3411C84.9354 13.3532 84.6277 13.3713 84.495 13.3954C84.3622 13.4195 84.2536 13.4859 84.1692 13.5945L82.7031 19.3501C82.7152 19.3501 83.8253 18.4813 86.0334 16.7438C88.2415 15.0062 89.3758 14.1133 89.4361 14.0651C89.605 13.8961 89.6895 13.7574 89.6895 13.6488C89.6895 13.4678 89.5387 13.3652 89.237 13.3411C89.0439 13.3411 88.9474 13.2747 88.9474 13.142C88.9474 13.1179 88.9655 13.0334 89.0017 12.8886C89.0379 12.7438 89.0681 12.6533 89.0922 12.6171C89.1284 12.5568 89.231 12.5266 89.3999 12.5266C89.4482 12.5266 89.6593 12.5326 90.0334 12.5447C90.4074 12.5568 90.8901 12.5628 91.4813 12.5628C91.7588 12.5628 92.0484 12.5568 92.3501 12.5447C92.6517 12.5326 92.8327 12.5266 92.8931 12.5266C93.1344 12.5266 93.2551 12.5869 93.2551 12.7076C93.2551 12.9731 93.2068 13.1541 93.1103 13.2506C93.0741 13.3109 92.9594 13.3411 92.7664 13.3411C91.8614 13.4014 91.0409 13.7091 90.3049 14.2642C90.1118 14.3848 89.6895 14.6985 89.0379 15.2053C88.3863 15.7121 87.783 16.1887 87.228 16.6352L86.3773 17.3048L86.5402 17.703C86.6488 17.9685 86.8177 18.3727 87.047 18.9157C87.2762 19.4587 87.4874 19.9715 87.6805 20.4541C88.5854 22.5899 89.0681 23.6939 89.1284 23.7663C89.1525 23.7904 89.1827 23.8146 89.2189 23.8387C89.3878 23.9594 89.6955 24.0257 90.142 24.0378H90.5221C90.5944 24.1343 90.6306 24.1886 90.6306 24.2007C90.6306 24.2128 90.6125 24.3214 90.5763 24.5265C90.5281 24.6833 90.4678 24.798 90.3954 24.8704H90.1963C89.7136 24.8342 89.1405 24.8161 88.4768 24.8161C87.0047 24.8161 86.1782 24.8342 85.9972 24.8704H85.8162C85.7438 24.798 85.7076 24.7437 85.7076 24.7075C85.7076 24.6713 85.7197 24.5627 85.7438 24.3817C85.7921 24.2248 85.8283 24.1283 85.8524 24.0921C85.8766 24.0559 85.9429 24.0378 86.0515 24.0378H86.1058C86.7091 24.0378 87.0108 23.887 87.0108 23.5853C87.0108 23.5371 86.8479 23.1147 86.5221 22.3184C86.1963 21.522 86.0032 21.0695 85.9429 20.9609L84.8932 18.4632L83.6624 19.4225L82.4316 20.3817L82.0154 22.065C81.7378 23.1751 81.5991 23.7603 81.5991 23.8206C81.5991 23.9051 81.6473 23.9594 81.7439 23.9835C81.8404 24.0076 82.1421 24.0257 82.6488 24.0378H83.2099C83.2823 24.1464 83.3185 24.2128 83.3185 24.2369C83.3185 24.43 83.2763 24.6109 83.1918 24.7799C83.1315 24.8402 83.035 24.8704 82.9022 24.8704C82.866 24.8704 82.6428 24.8643 82.2326 24.8523C81.8223 24.8402 81.219 24.8342 80.4226 24.8342C79.6745 24.8342 79.1014 24.8342 78.7032 24.8342C78.305 24.8342 78.0878 24.8402 78.0516 24.8523C77.8344 24.8523 77.7258 24.7919 77.7258 24.6713C77.7258 24.6471 77.7439 24.5627 77.7801 24.4179C77.8284 24.2248 77.8766 24.1162 77.9249 24.0921C77.9732 24.068 78.1119 24.0499 78.3412 24.0378C78.667 24.0378 79.029 24.0197 79.4272 23.9835C79.5961 23.9473 79.7107 23.8749 79.771 23.7663C79.8072 23.718 80.2416 22.0408 81.0742 18.7347C81.9068 15.4285 82.323 13.685 82.323 13.504Z"
            fill="black" />
        <path
            d="M94.0282 16.6404C94.0282 16.9219 94.1349 17.0626 94.3481 17.0626C94.6638 17.0626 94.9325 16.6148 95.1543 15.719C95.2055 15.5484 95.2481 15.4588 95.2823 15.4503C95.2993 15.4418 95.342 15.4375 95.4102 15.4375H95.4614C95.5382 15.4375 95.5894 15.4375 95.615 15.4375C95.6406 15.4375 95.6619 15.446 95.679 15.4631C95.696 15.4802 95.7045 15.51 95.7045 15.5527C95.696 15.6039 95.6832 15.6721 95.6662 15.7574C95.6491 15.8427 95.6022 16.0048 95.5254 16.2437C95.4486 16.4825 95.3633 16.683 95.2695 16.8451C95.1756 17.0072 95.0434 17.165 94.8728 17.3186C94.7022 17.4721 94.506 17.5446 94.2842 17.5361C93.9771 17.5361 93.6913 17.4423 93.4268 17.2546C93.1624 17.0669 93.0259 16.7513 93.0173 16.3077C93.0173 16.2053 93.0216 16.1328 93.0301 16.0901L93.8619 12.7887C94.3993 10.6133 94.6681 9.49153 94.6681 9.42329C94.6681 9.39769 94.6638 9.37637 94.6553 9.35931C94.6467 9.34224 94.6297 9.32518 94.6041 9.30812C94.5785 9.29106 94.5572 9.28253 94.5401 9.28253C94.523 9.28253 94.4889 9.27826 94.4377 9.26973C94.3865 9.2612 94.3524 9.25694 94.3354 9.25694C94.3183 9.25694 94.2799 9.25267 94.2202 9.24414C94.1605 9.23561 94.1178 9.23561 94.0922 9.24414C94.0069 9.24414 93.9515 9.24414 93.9259 9.24414C93.9003 9.24414 93.8662 9.23988 93.8235 9.23134C93.7808 9.22281 93.7553 9.21002 93.7467 9.19296C93.7382 9.17589 93.7339 9.1503 93.7339 9.11618C93.7339 9.09912 93.7425 9.0394 93.7595 8.93703C93.8022 8.77495 93.8491 8.68537 93.9003 8.66831C93.9515 8.65125 94.2586 8.62566 94.8216 8.59153C94.9496 8.583 95.0946 8.57447 95.2567 8.56594C95.4188 8.55741 95.5467 8.54461 95.6406 8.52755C95.7344 8.51049 95.7813 8.50622 95.7813 8.51475C95.8837 8.51475 95.9349 8.54888 95.9349 8.61712C95.9349 8.71096 95.6235 9.99059 95.0008 12.456C94.378 14.9214 94.0581 16.2138 94.041 16.3333C94.041 16.3503 94.041 16.3844 94.041 16.4356C94.041 16.4868 94.0368 16.5295 94.0282 16.5636V16.6404Z"
            fill="black" />
        <path
            d="M96.7666 15.3863C96.7666 14.5247 97.0908 13.7058 97.7391 12.9295C98.3875 12.1532 99.1169 11.7607 99.9273 11.7522C100.362 11.7522 100.746 11.9612 101.079 12.3792C101.215 12.1233 101.412 11.9953 101.668 11.9953C101.778 11.9953 101.877 12.0295 101.962 12.0977C102.047 12.1659 102.09 12.2513 102.09 12.3536C102.09 12.4645 101.932 13.147 101.616 14.401C101.301 15.6551 101.139 16.3631 101.13 16.5252C101.13 16.7385 101.16 16.8792 101.22 16.9475C101.279 17.0157 101.369 17.0541 101.488 17.0626C101.565 17.0541 101.651 17.0157 101.744 16.9475C101.924 16.7769 102.098 16.3674 102.269 15.719C102.32 15.5484 102.363 15.4588 102.397 15.4503C102.414 15.4418 102.457 15.4375 102.525 15.4375H102.576C102.738 15.4375 102.819 15.4759 102.819 15.5527C102.819 15.6039 102.798 15.719 102.755 15.8982C102.713 16.0773 102.627 16.3077 102.499 16.5892C102.371 16.8707 102.235 17.084 102.09 17.229C101.979 17.3399 101.842 17.4295 101.68 17.4977C101.612 17.5148 101.51 17.5233 101.373 17.5233C101.083 17.5233 100.84 17.4593 100.644 17.3314C100.448 17.2034 100.32 17.0712 100.26 16.9347L100.183 16.7427C100.175 16.7342 100.158 16.7385 100.132 16.7555C100.115 16.7726 100.098 16.7897 100.081 16.8067C99.5775 17.2844 99.0657 17.5233 98.5453 17.5233C98.0761 17.5233 97.6624 17.3527 97.3041 17.0115C96.9458 16.6702 96.7666 16.1285 96.7666 15.3863ZM100.836 13.1982C100.836 13.147 100.815 13.0532 100.772 12.9167C100.729 12.7802 100.631 12.6309 100.478 12.4688C100.324 12.3067 100.128 12.2214 99.8889 12.2129C99.5903 12.2129 99.3046 12.3451 99.0316 12.6095C98.7586 12.874 98.5453 13.2195 98.3918 13.646C98.1444 14.32 97.9695 15.0195 97.8671 15.7446C97.8671 15.7702 97.8671 15.8171 97.8671 15.8854C97.8671 15.9536 97.8628 16.0048 97.8543 16.0389C97.8543 16.4228 97.9311 16.6873 98.0846 16.8323C98.2382 16.9773 98.4216 17.0541 98.6349 17.0626C98.9591 17.0626 99.279 16.9219 99.5946 16.6404C99.9102 16.3588 100.098 16.1413 100.158 15.9878C100.175 15.9536 100.29 15.4972 100.503 14.6186C100.716 13.7399 100.827 13.2664 100.836 13.1982Z"
            fill="black" />
        <path
            d="M103.382 13.7228C103.382 13.6546 103.421 13.5223 103.497 13.3261C103.574 13.1299 103.681 12.9081 103.817 12.6607C103.954 12.4133 104.142 12.2001 104.38 12.0209C104.619 11.8418 104.871 11.7479 105.135 11.7394C105.528 11.7394 105.822 11.846 106.018 12.0593C106.215 12.2726 106.313 12.5242 106.313 12.8143C106.313 12.9678 106.168 13.4456 105.878 14.2475C105.588 15.0494 105.442 15.6508 105.442 16.0517C105.442 16.4186 105.502 16.6745 105.622 16.8195C105.741 16.9645 105.92 17.0413 106.159 17.0498C106.398 17.0584 106.624 16.9859 106.837 16.8323C107.051 16.6788 107.208 16.5337 107.311 16.3972L107.451 16.1797C107.469 16.1456 107.631 15.4972 107.938 14.2347C108.194 13.211 108.347 12.6138 108.398 12.4432C108.45 12.2726 108.509 12.1489 108.578 12.0721C108.723 11.9441 108.876 11.8802 109.038 11.8802C109.183 11.8802 109.29 11.9228 109.358 12.0081C109.426 12.0934 109.46 12.1745 109.46 12.2513L108.488 16.3205C108.479 16.3631 108.475 16.4314 108.475 16.5252C108.475 16.7385 108.505 16.8792 108.565 16.9475C108.624 17.0157 108.714 17.0541 108.833 17.0626C109.021 17.037 109.17 16.9048 109.281 16.666C109.392 16.4271 109.52 16.0517 109.665 15.5399C109.682 15.4716 109.768 15.4375 109.921 15.4375C110.083 15.4375 110.164 15.4759 110.164 15.5527C110.156 15.5953 110.147 15.6551 110.139 15.7318C110.13 15.8086 110.092 15.9451 110.024 16.1413C109.955 16.3375 109.883 16.5209 109.806 16.6916C109.729 16.8622 109.623 17.0243 109.486 17.1778C109.35 17.3314 109.196 17.438 109.025 17.4977C108.957 17.5148 108.855 17.5233 108.718 17.5233C108.155 17.5233 107.767 17.2844 107.554 16.8067C107.537 16.8152 107.49 16.8579 107.413 16.9347C107.336 17.0115 107.26 17.0754 107.183 17.1266C107.106 17.1778 107.012 17.2418 106.901 17.3186C106.79 17.3953 106.667 17.4465 106.53 17.4721C106.394 17.4977 106.249 17.519 106.095 17.5361C105.72 17.5361 105.387 17.4593 105.097 17.3058C104.653 17.0413 104.432 16.5892 104.432 15.9494C104.432 15.4631 104.581 14.8276 104.879 14.0427C105.178 13.2579 105.327 12.7588 105.327 12.5456C105.327 12.537 105.327 12.5285 105.327 12.52C105.327 12.4432 105.327 12.392 105.327 12.3664C105.327 12.3408 105.31 12.311 105.276 12.2768C105.242 12.2427 105.195 12.2257 105.135 12.2257H105.084C104.888 12.2257 104.709 12.3067 104.547 12.4688C104.385 12.6309 104.257 12.8058 104.163 12.9934C104.069 13.1811 103.997 13.3603 103.945 13.5309C103.894 13.7015 103.86 13.7953 103.843 13.8124C103.826 13.8295 103.758 13.838 103.638 13.838H103.459C103.408 13.7868 103.382 13.7484 103.382 13.7228Z"
            fill="black" />
        <path
            d="M112.109 13.6972C112.109 13.4242 112.178 13.147 112.314 12.8655C112.451 12.584 112.689 12.3238 113.031 12.0849C113.372 11.846 113.786 11.7309 114.272 11.7394C114.801 11.7394 115.185 11.8546 115.424 12.0849C115.662 12.3152 115.786 12.5712 115.795 12.8527C115.795 13.1257 115.722 13.3261 115.577 13.4541C115.432 13.5821 115.27 13.6503 115.091 13.6588C114.98 13.6588 114.878 13.6247 114.784 13.5565C114.69 13.4882 114.639 13.3773 114.63 13.2238C114.63 13.0873 114.669 12.9678 114.745 12.8655C114.822 12.7631 114.895 12.6863 114.963 12.6351C115.031 12.584 115.087 12.5584 115.129 12.5584C115.138 12.5584 115.142 12.5541 115.142 12.5456C115.142 12.52 115.112 12.4816 115.052 12.4304C114.993 12.3792 114.886 12.3323 114.733 12.2896C114.579 12.247 114.413 12.2214 114.234 12.2129C113.824 12.2129 113.525 12.3238 113.338 12.5456C113.15 12.7674 113.052 12.9934 113.043 13.2238C113.043 13.437 113.124 13.5863 113.287 13.6716C113.449 13.7569 113.683 13.8295 113.99 13.8892C114.297 13.9489 114.519 14.0129 114.656 14.0811C115.219 14.3285 115.5 14.738 115.5 15.3096C115.5 15.5484 115.453 15.7873 115.36 16.0261C115.266 16.265 115.125 16.5039 114.937 16.7427C114.75 16.9816 114.481 17.1693 114.131 17.3058C113.781 17.4423 113.38 17.5148 112.928 17.5233C112.271 17.5233 111.806 17.3996 111.533 17.1522C111.261 16.9048 111.12 16.6148 111.111 16.2821C111.111 15.9494 111.201 15.7105 111.38 15.5655C111.559 15.4205 111.747 15.3479 111.943 15.3479C112.071 15.3479 112.19 15.3863 112.301 15.4631C112.412 15.5399 112.472 15.6721 112.48 15.8598C112.48 16.0816 112.404 16.2693 112.25 16.4228C112.097 16.5764 111.964 16.6532 111.853 16.6532C111.836 16.6617 111.824 16.666 111.815 16.666C111.806 16.666 111.802 16.6745 111.802 16.6915C111.811 16.7171 111.845 16.7513 111.905 16.7939C111.964 16.8366 112.097 16.892 112.301 16.9603C112.506 17.0285 112.741 17.0584 113.005 17.0498C113.312 17.0498 113.577 17.0029 113.798 16.9091C114.02 16.8152 114.182 16.6958 114.285 16.5508C114.387 16.4058 114.46 16.2735 114.502 16.1541C114.545 16.0347 114.566 15.928 114.566 15.8342C114.566 15.5953 114.477 15.4162 114.297 15.2968C114.118 15.1773 113.914 15.1048 113.683 15.0792C113.453 15.0536 113.201 14.9896 112.928 14.8873C112.655 14.7849 112.455 14.6356 112.327 14.4394C112.182 14.2261 112.109 13.9787 112.109 13.6972Z"
            fill="black" />
        <path fill-rule="evenodd" clip-rule="evenodd"
            d="M0 42.3181H122.176V0.0018692H0V42.3181ZM1.21266 41.1055V1.21453H120.963V41.1055H1.21266Z" fill="black" />
    </g>
    <defs>
        <clipPath id="clip0_0_1">
            <rect width="122.176" height="42.32" fill="white" />
        </clipPath>
    </defs>
</svg>