<svg xmlns="http://www.w3.org/2000/svg" width="122" height="42" fill="none" style="">
    <defs>
        <clipPath id="clip0_0_1">
            <rect width="122" height="42" fill="white" id="svg_1" />
        </clipPath>
    </defs>
    <g class="currentLayer" style="">
        <title>Layer 1</title>
        <g clip-path="url(#clip0_0_1)" id="svg_2" class="" fill="#ffffff" fill-opacity="1">
            <path
                d="M8.95917,13.339230800000001 C8.54892,13.339230800000001 8.33173,13.3151308 8.30759,13.266830800000001 C8.29553,13.2427308 8.2895,13.194430800000001 8.2895,13.122030800000001 C8.2895,12.832430800000001 8.35586,12.6333308 8.48859,12.5247308 C8.51272,12.5127308 8.61528,12.5066308 8.79628,12.5066308 C9.29099,12.5307308 10.1115,12.5428308 11.2578,12.5428308 C11.668,12.5428308 12.0481,12.5428308 12.398,12.5428308 C12.748,12.5428308 13.0195,12.5368308 13.2125,12.5247308 C13.4056,12.5127308 13.5262,12.5127308 13.5745,12.5247308 C13.7676,12.5247308 13.8641,12.5850308 13.8641,12.7057308 C13.8641,12.7298308 13.852,12.8143308 13.8279,12.9591308 C13.7676,13.1642308 13.7072,13.2849308 13.6469,13.3211308 H13.6107 C13.5866,13.3211308 13.5564,13.3211308 13.520199999999999,13.3211308 C13.484,13.3211308 13.4418,13.3211308 13.3935,13.3211308 C13.3452,13.3211308 13.2909,13.3271308 13.2306,13.339230800000001 C13.1703,13.3513308 13.116,13.3513308 13.0677,13.339230800000001 C12.5971,13.3513308 12.2955,13.3694308 12.1628,13.3935308 C12.03,13.4176308 11.9214,13.484030800000003 11.837,13.5926308 C11.8008,13.6408308 11.6077,14.3829308 11.2578,15.8188308 C11.1733,16.132530799999998 11.0828,16.4824308 10.9863,16.8686308 C10.889800000000001,17.254730799999997 10.8174,17.538230799999997 10.7691,17.7192308 L10.6967,17.990730799999998 C10.6967,18.0149308 11.5715,18.0269308 13.3211,18.0269308 H15.9455 L15.9636,17.972630799999997 C15.9636,17.9364308 16.1506,17.1943308 16.5247,15.7464308 C16.8626,14.3588308 17.0315,13.616730800000001 17.0315,13.5202308 C17.0315,13.4237308 16.6876,13.3633308 15.9998,13.339230800000001 C15.7223,13.339230800000001 15.5413,13.3271308 15.4568,13.3030308 C15.3724,13.2789308 15.3301,13.2246308 15.3301,13.1401308 C15.3301,13.1160308 15.3422,13.0436308 15.3663,12.9229308 C15.4146,12.7178308 15.4508,12.6031308 15.4749,12.5790308 C15.4991,12.554930800000001 15.595600000000001,12.5368308 15.7645,12.5247308 C15.8249,12.5247308 16.0782,12.5307308 16.5247,12.5428308 C16.9711,12.554930800000001 17.5383,12.5609308 18.226,12.5609308 C18.9741,12.5609308 19.5473,12.554930800000001 19.9455,12.5428308 C20.3437,12.5307308 20.5609,12.5247308 20.597,12.5247308 C20.8022,12.5247308 20.9047,12.5850308 20.9047,12.7057308 C20.9047,13.0315308 20.8323,13.2366308 20.6875,13.3211308 H20.6513 C20.6272,13.3211308 20.597,13.3211308 20.5609,13.3211308 C20.5247,13.3211308 20.4824,13.3211308 20.4342,13.3211308 C20.3859,13.3211308 20.3316,13.3271308 20.2713,13.339230800000001 C20.2109,13.3513308 20.1566,13.3513308 20.1084,13.339230800000001 C19.6378,13.3513308 19.336100000000002,13.3694308 19.2034,13.3935308 C19.0707,13.4176308 18.9621,13.484030800000003 18.8776,13.5926308 C18.8414,13.6529308 18.407,15.3603308 17.5745,18.714730799999998 C16.7419,22.0691308 16.3196,23.7704308 16.3075,23.818730799999997 C16.3075,23.9032308 16.3316,23.945430799999997 16.3799,23.945430799999997 C16.4764,23.981630799999998 16.8022,24.0118308 17.3573,24.0359308 H17.9183 C17.9907,24.132430799999998 18.0269,24.1867308 18.0269,24.1988308 C18.0269,24.2109308 18.0088,24.3195308 17.9726,24.524630799999997 C17.9244,24.681430799999998 17.864,24.7961308 17.7917,24.8685308 H17.5202 C17.0737,24.844330799999998 16.2653,24.832330799999998 15.0948,24.832330799999998 C14.6846,24.832330799999998 14.3045,24.832330799999998 13.9546,24.832330799999998 C13.6047,24.832330799999998 13.3271,24.832330799999998 13.122,24.832330799999998 C12.9169,24.832330799999998 12.7902,24.838330799999998 12.7419,24.850430799999998 C12.5368,24.850430799999998 12.4342,24.7961308 12.4342,24.687530799999998 C12.4342,24.6271308 12.4523,24.542730799999998 12.4885,24.4341308 C12.5489,24.2048308 12.6092,24.078130799999997 12.6695,24.0540308 C12.7178,24.0419308 12.8083,24.0359308 12.941,24.0359308 H13.0496 C13.3754,24.0359308 13.737400000000001,24.0178308 14.1356,23.981630799999998 C14.208,23.969530799999998 14.2562,23.963530799999997 14.2804,23.963530799999997 C14.3045,23.963530799999997 14.3407,23.9333308 14.389,23.8730308 C14.4372,23.812730799999997 14.4734,23.7584308 14.4976,23.710130799999998 C14.5217,23.661830799999997 14.5579,23.553330799999998 14.6062,23.384330799999997 C14.6544,23.2154308 14.6967,23.0465308 14.7329,22.8775308 C14.7691,22.708630799999998 14.8354,22.4492308 14.932,22.099330799999997 C15.0164,21.7614308 15.0828,21.4899308 15.131,21.284830799999998 C15.5292,19.692130799999997 15.7283,18.8897308 15.7283,18.8776308 C15.7283,18.8655308 14.8535,18.859530799999998 13.1039,18.859530799999998 H10.4795 L9.88224,21.3029308 C9.47199,22.9198308 9.26686,23.7584308 9.26686,23.818730799999997 C9.26686,23.9032308 9.31512,23.957530799999997 9.41165,23.981630799999998 C9.50818,24.0057308 9.80984,24.0238308 10.3166,24.0359308 H10.8777 C10.9501,24.132430799999998 10.9863,24.1867308 10.9863,24.1988308 C10.9863,24.2109308 10.9682,24.3195308 10.932,24.524630799999997 C10.883700000000001,24.681430799999998 10.8234,24.7961308 10.751,24.8685308 H10.4795 C10.0331,24.844330799999998 9.22463,24.832330799999998 8.0542,24.832330799999998 C7.64395,24.832330799999998 7.26387,24.832330799999998 6.91395,24.832330799999998 C6.56402,24.832330799999998 6.2865,24.832330799999998 6.08138,24.832330799999998 C5.87625,24.832330799999998 5.74955,24.838330799999998 5.70129,24.850430799999998 C5.49616,24.850430799999998 5.3936,24.7961308 5.3936,24.687530799999998 C5.3936,24.663330799999997 5.4117,24.5789308 5.4479,24.4341308 C5.50823,24.2048308 5.56856,24.078130799999997 5.62889,24.0540308 C5.67716,24.0419308 5.76765,24.0359308 5.90038,24.0359308 H6.00898 C6.33477,24.0359308 6.69675,24.0178308 7.09494,23.981630799999998 C7.26387,23.945430799999997 7.3785,23.8730308 7.43883,23.7644308 C7.47503,23.7161308 7.90941,22.0389308 8.74198,18.7328308 C9.57455,15.4266308 9.99083,13.6831308 9.99083,13.5021308 C9.99083,13.4176308 9.64695,13.3633308 8.95917,13.339230800000001 z"
                fill="#ffffff" id="svg_3" fill-opacity="1" />
            <path
                d="M28.2169,12.832430800000001 C27.3964,12.832430800000001 26.7327,12.5609308 26.2259,12.0179308 C25.7192,11.4750308 25.4597,10.7932308 25.4477,9.9727408 C25.4477,8.766120800000001 25.8881,7.6439608 26.7689,6.606260799999999 C27.6498,5.5685608 28.6754,4.9833508 29.8458,4.850620800000001 C29.8579,4.8385608 30.7025,4.8325208 32.3797,4.8325208 H34.8774 C34.8895,4.844590800000001 34.9076,4.8566608 34.9317,4.8687208 C34.9559,4.880790800000001 34.98,4.8928608 35.0041,4.9049208 C35.0283,4.916990800000001 35.0464,4.9290608 35.0584,4.9411208 C35.0705,4.9531908 35.0886,4.9712908 35.1127,4.9954208 C35.1369,5.0195508 35.1489,5.0316208 35.1489,5.0316208 C35.1489,5.0316208 35.161,5.0557508 35.1851,5.1040208 C35.2093,5.1522808 35.2153,5.1764108 35.2032,5.1764108 C35.1912,5.1764108 35.1972,5.2065808 35.2213,5.2669108 C35.2455,5.3272408 35.2515,5.3634408 35.2394,5.375510800000001 C35.2394,5.906420799999999 34.8473,6.1718808 34.063,6.1718808 C33.9785,6.1718808 33.8759,6.1718808 33.7553,6.1718808 C33.6346,6.1718808 33.5502,6.165840800000001 33.5019,6.1537808 H32.4159 L32.5064,6.3347708 C32.7236,6.793290799999999 32.8322,7.3061008 32.8322,7.873210800000001 C32.8322,9.2005008 32.3496,10.3588308 31.3843,11.3483308 C30.419,12.337730800000001 29.3632,12.832430800000001 28.2169,12.832430800000001 zM31.4205,7.601720800000001 C31.4205,6.636430799999999 30.9076,6.1537808 29.882,6.1537808 C28.3858,6.1537808 27.4145,7.2035408 26.968,9.3030608 C26.956,9.3513308 26.9499,9.3875308 26.9499,9.4116608 C26.8534,9.8581108 26.8051,10.2261308 26.8051,10.5157308 C26.8051,11.1190308 26.956,11.5413308 27.2576,11.7826308 C27.5593,12.0240308 27.9032,12.1507308 28.2893,12.1627308 C28.9409,12.1627308 29.5381,11.8792308 30.0811,11.3121308 C30.431,10.9501308 30.7146,10.4674308 30.9318,9.8641408 C31.149,9.2608308 31.2817,8.7781808 31.33,8.4162008 C31.3782,8.0542108 31.4084,7.7827208 31.4205,7.601720800000001 z"
                fill="#ffffff" id="svg_4" fill-opacity="1" />
            <path
                d="M26.3526,32.0901308 C26.3647,32.053930799999996 26.3768,32.0056308 26.3888,31.945330799999997 C26.4009,31.8850308 26.4311,31.7523308 26.4793,31.547130799999998 C26.5276,31.3420308 26.5879,31.1550308 26.6603,30.986030799999998 C26.7327,30.817130799999997 26.8232,30.6180308 26.9318,30.388830799999997 C27.0404,30.1595308 27.1611,29.978530799999998 27.2938,29.845830799999998 C27.4265,29.7131308 27.5834,29.5803308 27.7644,29.4476308 C27.9454,29.3149308 28.1445,29.260630799999998 28.3617,29.2847308 C28.7116,29.2847308 29.0193,29.3571308 29.2847,29.501930799999997 C29.5502,29.6467308 29.7372,29.7794308 29.8458,29.9001308 C29.9544,30.0207308 30.0208,30.141430800000002 30.0449,30.262130799999998 C30.069,30.3345308 30.0871,30.370730799999997 30.0992,30.370730799999997 C30.1113,30.370730799999997 30.1595,30.3284308 30.244,30.244030799999997 C30.8232,29.6165308 31.4929,29.3028308 32.253,29.3028308 H32.3073 C32.8865,29.3028308 33.3209,29.550230799999998 33.6105,30.0449308 C33.707,30.2741308 33.7553,30.4974308 33.7553,30.7146308 C33.7553,31.076530799999997 33.6768,31.366130799999997 33.52,31.5833308 C33.3631,31.800530799999997 33.2063,31.939330799999997 33.0494,31.9996308 C32.8925,32.0599308 32.7417,32.0841308 32.5969,32.0720308 C32.3556,32.0720308 32.1625,32.0056308 32.0177,31.8729308 C31.8729,31.7402308 31.8005,31.5652308 31.8005,31.3480308 C31.8005,30.7689308 32.1384,30.382730799999997 32.8141,30.1897308 C32.5486,30.0328308 32.3315,29.954430799999997 32.1625,29.954430799999997 C31.4868,29.954430799999997 30.8654,30.400830799999998 30.2983,31.2937308 C30.1776,31.4868308 30.0871,31.685930799999998 30.0268,31.8910308 C29.9665,32.0961308 29.7613,32.898530799999996 29.4114,34.2982308 C29.0012,35.9875308 28.7659,36.8864308 28.7056,36.995030799999995 C28.5487,37.320830799999996 28.2893,37.4837308 27.9273,37.4837308 C27.7704,37.4837308 27.6437,37.447530799999996 27.5472,37.3751308 C27.4507,37.3027308 27.3843,37.2303308 27.3481,37.157930799999995 C27.3119,37.0855308 27.2998,37.025230799999996 27.3119,36.9769308 C27.3119,36.8201308 27.5532,35.7824308 28.0359,33.863830799999995 C28.5185,31.945330799999997 28.759900000000002,30.8775308 28.759900000000002,30.660330799999997 C28.759900000000002,30.1897308 28.603,29.954430799999997 28.2893,29.954430799999997 C28.0359,29.954430799999997 27.8187,30.123330799999998 27.6377,30.4612308 C27.4567,30.799030799999997 27.3119,31.1670308 27.2033,31.5652308 C27.0947,31.963430799999998 27.0283,32.180630799999996 27.0042,32.2168308 C26.9801,32.2409308 26.8836,32.2530308 26.7146,32.2530308 H26.4612 C26.3888,32.180630799999996 26.3526,32.1263308 26.3526,32.0901308 z"
                fill="#ffffff" id="svg_5" fill-opacity="1" />
            <path d="M37.0313,20.8866308 H23.0767 V19.8007308 H37.0313 V20.8866308 z" fill="#ffffff" id="svg_6"
                fill-opacity="1" />
            <path
                d="M41.5742,19.6378308 C41.5742,19.251630799999997 41.670700000000004,18.859530799999998 41.8638,18.4613308 C42.0568,18.0631308 42.3947,17.695130799999998 42.8773,17.3572308 C43.36,17.0194308 43.9452,16.856530799999998 44.633,16.8686308 C45.3811,16.8686308 45.9241,17.0315308 46.2619,17.3572308 C46.5998,17.683030799999997 46.7747,18.0450308 46.7868,18.443230800000002 C46.7868,18.829330799999997 46.6842,19.112930799999997 46.4791,19.2939308 C46.274,19.4749308 46.0447,19.571430799999998 45.7913,19.5835308 C45.6345,19.5835308 45.4897,19.535230799999997 45.3569,19.4387308 C45.2242,19.3421308 45.1518,19.1853308 45.1398,18.968130799999997 C45.1398,18.7750308 45.1941,18.6061308 45.3027,18.4613308 C45.4112,18.3165308 45.5138,18.2079308 45.6103,18.135530799999998 C45.7069,18.0631308 45.7853,18.0269308 45.8456,18.0269308 C45.8577,18.0269308 45.8637,18.0209308 45.8637,18.0088308 C45.8637,17.972630799999997 45.8215,17.9183308 45.737,17.845930799999998 C45.6526,17.7735308 45.5017,17.707230799999998 45.2846,17.6468308 C45.0674,17.5865308 44.8321,17.550330799999998 44.5787,17.538230799999997 C43.9995,17.538230799999997 43.5772,17.695130799999998 43.3117,18.0088308 C43.0463,18.3225308 42.9075,18.6423308 42.8954,18.968130799999997 C42.8954,19.269730799999998 43.0101,19.4809308 43.2393,19.6016308 C43.4686,19.7222308 43.8004,19.824830799999997 44.2348,19.9092308 C44.669200000000004,19.993730799999998 44.9829,20.084230799999997 45.176,20.1807308 C45.9723,20.530730799999997 46.3705,21.109830799999997 46.3705,21.9183308 C46.3705,22.256130799999998 46.3041,22.5940308 46.1714,22.9318308 C46.0387,23.269730799999998 45.8396,23.6075308 45.5741,23.945430799999997 C45.3087,24.283330799999998 44.9286,24.548730799999998 44.4339,24.7418308 C43.9392,24.9348308 43.3721,25.0374308 42.7325,25.0495308 C41.8034,25.0495308 41.1458,24.8745308 40.7597,24.524630799999997 C40.3736,24.1747308 40.1745,23.7644308 40.1624,23.293830800000002 C40.1624,22.823230799999997 40.2891,22.4854308 40.5425,22.280330799999998 C40.7959,22.0751308 41.0614,21.972630799999997 41.3389,21.972630799999997 C41.5199,21.972630799999997 41.6888,22.0269308 41.8457,22.135530799999998 C42.0025,22.244130799999997 42.087,22.4311308 42.0991,22.696530799999998 C42.0991,23.0103308 41.9905,23.275730799999998 41.7733,23.4929308 C41.5561,23.710130799999998 41.3691,23.818730799999997 41.2122,23.818730799999997 C41.1881,23.830830799999998 41.17,23.836830799999998 41.1579,23.836830799999998 C41.1458,23.836830799999998 41.1398,23.848930799999998 41.1398,23.8730308 C41.1519,23.9092308 41.2001,23.957530799999997 41.2846,24.0178308 C41.3691,24.078130799999997 41.5561,24.1566308 41.8457,24.253130799999997 C42.1353,24.3496308 42.4671,24.391930799999997 42.8411,24.379830799999997 C43.2755,24.379830799999997 43.6496,24.3134308 43.9633,24.1807308 C44.277,24.0480308 44.5063,23.8790308 44.6511,23.673930799999997 C44.7959,23.4688308 44.8984,23.281830799999998 44.9588,23.112830799999998 C45.0191,22.943930799999997 45.0493,22.7931308 45.0493,22.660330799999997 C45.0493,22.3225308 44.9226,22.0691308 44.669200000000004,21.9002308 C44.4158,21.7312308 44.1262,21.6287308 43.8004,21.5925308 C43.4746,21.556330799999998 43.1187,21.4658308 42.7325,21.3210308 C42.3464,21.1762308 42.0629,20.965030799999997 41.8819,20.687530799999998 C41.6767,20.385930799999997 41.5742,20.0359308 41.5742,19.6378308 z"
                fill="#ffffff" id="svg_7" fill-opacity="1" />
            <path
                d="M48.3976,19.7283308 C48.1442,19.7283308 48.0176,19.667930799999997 48.0176,19.547330799999997 C48.0176,19.4628308 48.1804,19.1973308 48.5062,18.7509308 C48.832,18.3044308 49.1578,17.9425308 49.4836,17.664930799999997 C49.9059,17.3391308 50.2981,17.1521308 50.6601,17.103930799999997 C50.7325,17.0797308 51.746,17.0677308 53.7007,17.0677308 C55.6313,17.0677308 56.6268,17.0797308 56.6871,17.103930799999997 C56.9285,17.1642308 57.0491,17.3271308 57.0491,17.5925308 C57.0491,17.7615308 56.9948,17.9183308 56.8862,18.0631308 C56.7776,18.2079308 56.6389,18.3044308 56.4699,18.3527308 C56.3975,18.376830799999997 55.8184,18.388930799999997 54.7324,18.388930799999997 C53.6464,18.388930799999997 53.1035,18.401030799999997 53.1035,18.425130799999998 C53.0914,18.4372308 52.9949,18.9319308 52.8139,19.9092308 C52.6329,20.8866308 52.4398,21.8821308 52.2347,22.8956308 C52.0296,23.9092308 51.921,24.4462308 51.9089,24.5065308 C51.8486,24.687530799999998 51.74,24.832330799999998 51.5831,24.940930799999997 C51.4263,25.0495308 51.2513,25.103830799999997 51.0582,25.103830799999997 C50.6601,25.103830799999997 50.461,24.9047308 50.461,24.5065308 V24.3255308 L51.3659,21.393430799999997 C51.4987,20.959030799999997 51.6435,20.4764308 51.8003,19.945430799999997 C51.9572,19.414530799999998 52.0839,19.0284308 52.1804,18.7871308 L52.289,18.407030799999998 C52.289,18.394930799999997 52.0115,18.388930799999997 51.4564,18.388930799999997 C51.4323,18.388930799999997 51.3659,18.388930799999997 51.2573,18.388930799999997 C51.1487,18.388930799999997 51.0643,18.382930799999997 51.0039,18.3708308 C50.0628,18.3708308 49.3267,18.7569308 48.7958,19.529230799999997 C48.7355,19.6257308 48.6872,19.680030799999997 48.651,19.692130799999997 C48.6148,19.704130799999998 48.5304,19.716230799999998 48.3976,19.7283308 z"
                fill="#ffffff" id="svg_8" fill-opacity="1" />
            <path
                d="M62.0663,14.3709308 C62.0783,14.2864308 62.1145,14.2140308 62.1749,14.1537308 C62.2352,14.0933308 62.3197,14.0571308 62.4282,14.0451308 C62.561,14.0451308 62.6877,14.1537308 62.8083,14.3709308 L67.0979,23.9997308 L71.3874,14.3709308 C71.496,14.1778308 71.5925,14.0752308 71.677,14.0632308 C71.7011,14.051130800000001 71.7313,14.0451308 71.7675,14.0451308 C71.9847,14.0451308 72.1054,14.1537308 72.1295,14.3709308 C72.1295,14.4432308 71.7373,15.3723308 70.953,17.1581308 C70.1687,18.9440308 69.3784,20.7177308 68.582,22.4794308 C67.7857,24.241030799999997 67.3814,25.127930799999998 67.3694,25.140030799999998 C67.309,25.224430799999997 67.2185,25.266730799999998 67.0979,25.266730799999998 C66.9772,25.266730799999998 66.8867,25.224430799999997 66.8264,25.140030799999998 C66.8143,25.127930799999998 66.4161,24.247130799999997 65.6318,22.4975308 C64.8475,20.7479308 64.0572,18.974130799999998 63.2608,17.1762308 C62.4644,15.3784308 62.0663,14.4432308 62.0663,14.3709308 z"
                fill="#ffffff" id="svg_9" fill-opacity="1" />
            <path
                d="M82.323,13.5021308 C82.323,13.4176308 81.9792,13.3633308 81.2914,13.339230800000001 C81.0139,13.339230800000001 80.8329,13.3332308 80.7484,13.3211308 C80.6639,13.3090308 80.6217,13.2547308 80.6217,13.1582308 C80.6217,13.1341308 80.6338,13.049630800000001 80.6579,12.904830800000001 C80.7303,12.6635308 80.7906,12.5368308 80.8389,12.5247308 C80.863,12.5127308 80.9294,12.5066308 81.038,12.5066308 H81.1285 C81.6232,12.5307308 82.4437,12.5428308 83.59,12.5428308 C84.0003,12.5428308 84.3803,12.5428308 84.7303,12.5428308 C85.0802,12.5428308 85.3517,12.5368308 85.5447,12.5247308 C85.73780000000001,12.5127308 85.8585,12.5127308 85.9067,12.5247308 C86.1118,12.5247308 86.2144,12.5730308 86.2144,12.6695308 C86.2144,12.7298308 86.1963,12.8143308 86.1601,12.9229308 C86.148,12.9470308 86.142,12.9832308 86.142,13.0315308 C86.142,13.0798308 86.136,13.1160308 86.1239,13.1401308 C86.1118,13.1642308 86.0998,13.1884308 86.0877,13.2125308 C86.0756,13.2366308 86.0575,13.2547308 86.0334,13.266830800000001 C86.0093,13.2789308 85.9851,13.2909308 85.961,13.3030308 C85.9369,13.3151308 85.8947,13.3211308 85.8343,13.3211308 C85.774,13.3211308 85.7197,13.3271308 85.6714,13.339230800000001 C85.6232,13.3513308 85.5387,13.3513308 85.418,13.339230800000001 C84.9354,13.3513308 84.6277,13.3694308 84.495,13.3935308 C84.3622,13.4176308 84.2536,13.484030800000003 84.1692,13.5926308 L82.7031,19.3482308 C82.7152,19.3482308 83.8253,18.4794308 86.0334,16.7419308 C88.2415,15.0043308 89.3758,14.1114308 89.4361,14.0632308 C89.605,13.8942308 89.6895,13.7555308 89.6895,13.6469308 C89.6895,13.4659308 89.5387,13.3633308 89.237,13.339230800000001 C89.0439,13.339230800000001 88.9474,13.2728308 88.9474,13.1401308 C88.9474,13.1160308 88.9655,13.0315308 89.0017,12.8867308 C89.0379,12.7419308 89.0681,12.6514308 89.0922,12.6152308 C89.1284,12.554930800000001 89.231,12.5247308 89.3999,12.5247308 C89.4482,12.5247308 89.6593,12.5307308 90.0334,12.5428308 C90.4074,12.554930800000001 90.8901,12.5609308 91.4813,12.5609308 C91.7588,12.5609308 92.0484,12.554930800000001 92.3501,12.5428308 C92.6517,12.5307308 92.8327,12.5247308 92.8931,12.5247308 C93.1344,12.5247308 93.2551,12.5850308 93.2551,12.7057308 C93.2551,12.9712308 93.2068,13.1522308 93.1103,13.2487308 C93.0741,13.3090308 92.9594,13.339230800000001 92.7664,13.339230800000001 C91.8614,13.3995308 91.0409,13.7072308 90.3049,14.2623308 C90.1118,14.3829308 89.6895,14.6966308 89.0379,15.2034308 C88.3863,15.7102308 87.783,16.1868308 87.228,16.6333308 L86.3773,17.3029308 L86.5402,17.701130799999998 C86.6488,17.966630799999997 86.8177,18.3708308 87.047,18.9138308 C87.2762,19.4568308 87.4874,19.969630799999997 87.6805,20.4522308 C88.5854,22.5880308 89.0681,23.692030799999998 89.1284,23.7644308 C89.1525,23.788530799999997 89.1827,23.812730799999997 89.2189,23.836830799999998 C89.3878,23.957530799999997 89.6955,24.0238308 90.142,24.0359308 H90.5221 C90.5944,24.132430799999998 90.6306,24.1867308 90.6306,24.1988308 C90.6306,24.2109308 90.6125,24.3195308 90.5763,24.524630799999997 C90.5281,24.681430799999998 90.4678,24.7961308 90.3954,24.8685308 H90.1963 C89.7136,24.832330799999998 89.1405,24.814230799999997 88.4768,24.814230799999997 C87.0047,24.814230799999997 86.1782,24.832330799999998 85.9972,24.8685308 H85.8162 C85.7438,24.7961308 85.7076,24.7418308 85.7076,24.705630799999998 C85.7076,24.669430799999997 85.7197,24.560830799999998 85.7438,24.379830799999997 C85.7921,24.222930799999997 85.8283,24.126430799999998 85.8524,24.090230799999997 C85.8766,24.0540308 85.9429,24.0359308 86.0515,24.0359308 H86.1058 C86.7091,24.0359308 87.0108,23.8851308 87.0108,23.5834308 C87.0108,23.535230799999997 86.8479,23.112830799999998 86.5221,22.3165308 C86.1963,21.520130799999997 86.0032,21.0676308 85.9429,20.959030799999997 L84.8932,18.4613308 L83.6624,19.420630799999998 L82.4316,20.379830799999997 L82.0154,22.0631308 C81.73780000000001,23.1732308 81.5991,23.7584308 81.5991,23.818730799999997 C81.5991,23.9032308 81.6473,23.957530799999997 81.7439,23.981630799999998 C81.8404,24.0057308 82.1421,24.0238308 82.6488,24.0359308 H83.2099 C83.2823,24.1445308 83.3185,24.2109308 83.3185,24.235030799999997 C83.3185,24.428130799999998 83.2763,24.6090308 83.1918,24.7780308 C83.1315,24.838330799999998 83.035,24.8685308 82.9022,24.8685308 C82.866,24.8685308 82.6428,24.8624308 82.2326,24.850430799999998 C81.8223,24.838330799999998 81.219,24.832330799999998 80.4226,24.832330799999998 C79.6745,24.832330799999998 79.1014,24.832330799999998 78.7032,24.832330799999998 C78.305,24.832330799999998 78.0878,24.838330799999998 78.0516,24.850430799999998 C77.8344,24.850430799999998 77.7258,24.790030799999997 77.7258,24.669430799999997 C77.7258,24.6452308 77.7439,24.560830799999998 77.7801,24.416030799999998 C77.8284,24.222930799999997 77.8766,24.114330799999998 77.9249,24.090230799999997 C77.9732,24.0661308 78.1119,24.0480308 78.3412,24.0359308 C78.667,24.0359308 79.029,24.0178308 79.4272,23.981630799999998 C79.5961,23.945430799999997 79.7107,23.8730308 79.771,23.7644308 C79.8072,23.7161308 80.2416,22.0389308 81.0742,18.7328308 C81.9068,15.4266308 82.323,13.6831308 82.323,13.5021308 z"
                fill="#ffffff" id="svg_10" fill-opacity="1" />
            <path
                d="M94.0282,16.638530799999998 C94.0282,16.9200308 94.1349,17.060730799999998 94.3481,17.060730799999998 C94.6638,17.060730799999998 94.9325,16.612930799999997 95.1543,15.7171308 C95.2055,15.546530800000001 95.2481,15.4569308 95.2823,15.4484308 C95.2993,15.4399308 95.342,15.4356308 95.4102,15.4356308 H95.4614 C95.5382,15.4356308 95.5894,15.4356308 95.615,15.4356308 C95.6406,15.4356308 95.6619,15.4441308 95.679,15.461230800000001 C95.696,15.4783308 95.7045,15.5081308 95.7045,15.5508308 C95.696,15.6020308 95.6832,15.6702308 95.6662,15.7555308 C95.6491,15.8408308 95.6022,16.002930799999998 95.5254,16.2418308 C95.4486,16.4806308 95.3633,16.6811308 95.2695,16.843230799999997 C95.1756,17.0053308 95.0434,17.163130799999998 94.8728,17.316730800000002 C94.7022,17.4702308 94.506,17.542730799999998 94.2842,17.5342308 C93.9771,17.5342308 93.6913,17.440430799999998 93.4268,17.2527308 C93.1624,17.0650308 93.0259,16.7494308 93.0173,16.3058308 C93.0173,16.2034308 93.0216,16.130930799999998 93.0301,16.088230799999998 L93.8619,12.7868308 C94.3993,10.6114308 94.6681,9.489660800000003 94.6681,9.4214208 C94.6681,9.395820800000001 94.6638,9.3745008 94.6553,9.357440800000001 C94.6467,9.3403708 94.6297,9.3233108 94.6041,9.3062508 C94.5785,9.2891908 94.5572,9.2806608 94.5401,9.2806608 C94.523,9.2806608 94.4889,9.2763908 94.4377,9.2678608 C94.3865,9.2593308 94.3524,9.2550708 94.3354,9.2550708 C94.3183,9.2550708 94.2799,9.2508008 94.2202,9.2422708 C94.1605,9.2337408 94.1178,9.2337408 94.0922,9.2422708 C94.0069,9.2422708 93.9515,9.2422708 93.9259,9.2422708 C93.9003,9.2422708 93.8662,9.2380108 93.8235,9.2294708 C93.7808,9.220940800000001 93.7553,9.2081508 93.7467,9.1910908 C93.7382,9.174020800000001 93.7339,9.1484308 93.7339,9.1143108 C93.7339,9.0972508 93.7425,9.0375308 93.7595,8.9351608 C93.8022,8.7730808 93.8491,8.683500800000001 93.9003,8.6664408 C93.9515,8.649380800000001 94.2586,8.6237908 94.8216,8.5896608 C94.9496,8.5811308 95.0946,8.5726008 95.2567,8.5640708 C95.4188,8.555540800000001 95.5467,8.5427408 95.6406,8.5256808 C95.7344,8.508620800000001 95.7813,8.504350800000001 95.7813,8.5128808 C95.8837,8.5128808 95.9349,8.5470108 95.9349,8.6152508 C95.9349,8.7090908 95.6235,9.9887208 95.0008,12.4541308 C94.378,14.9195308 94.0581,16.211930799999998 94.041,16.3314308 C94.041,16.3484308 94.041,16.382530799999998 94.041,16.4337308 C94.041,16.484930799999997 94.0368,16.527630799999997 94.0282,16.5617308 V16.638530799999998 z"
                fill="#ffffff" id="svg_11" fill-opacity="1" />
            <path
                d="M96.7666,15.3844308 C96.7666,14.5228308 97.0908,13.7039308 97.7391,12.927630800000001 C98.3875,12.1513308 99.1169,11.7588308 99.9273,11.7503308 C100.362,11.7503308 100.746,11.9593308 101.079,12.377330800000003 C101.215,12.1214308 101.412,11.9934308 101.668,11.9934308 C101.778,11.9934308 101.877,12.0276308 101.962,12.0958308 C102.047,12.1640308 102.09,12.2494308 102.09,12.3517308 C102.09,12.4626308 101.932,13.1451308 101.616,14.3991308 C101.301,15.653230800000001 101.139,16.361230799999998 101.13,16.5233308 C101.13,16.736630799999997 101.16,16.8773308 101.22,16.9456308 C101.279,17.013830799999997 101.369,17.052230799999997 101.488,17.060730799999998 C101.565,17.052230799999997 101.651,17.013830799999997 101.744,16.9456308 C101.924,16.7750308 102.098,16.3655308 102.269,15.7171308 C102.32,15.546530800000001 102.363,15.4569308 102.397,15.4484308 C102.414,15.4399308 102.457,15.4356308 102.525,15.4356308 H102.576 C102.738,15.4356308 102.819,15.4740308 102.819,15.5508308 C102.819,15.6020308 102.798,15.7171308 102.755,15.8963308 C102.713,16.0754308 102.627,16.3058308 102.499,16.5873308 C102.371,16.868830799999998 102.235,17.082130799999998 102.09,17.227130799999998 C101.979,17.338030800000002 101.842,17.4276308 101.68,17.4958308 C101.612,17.5129308 101.51,17.521430799999997 101.373,17.521430799999997 C101.083,17.521430799999997 100.84,17.457430799999997 100.644,17.329530799999997 C100.448,17.201530799999997 100.32,17.0693308 100.26,16.932830799999998 L100.183,16.740830799999998 C100.175,16.7323308 100.158,16.736630799999997 100.132,16.7536308 C100.115,16.7707308 100.098,16.7878308 100.081,16.804830799999998 C99.5775,17.2825308 99.0657,17.521430799999997 98.5453,17.521430799999997 C98.0761,17.521430799999997 97.6624,17.350830799999997 97.3041,17.0096308 C96.9458,16.6683308 96.7666,16.126630799999997 96.7666,15.3844308 zM100.836,13.1963308 C100.836,13.1451308 100.815,13.0513308 100.772,12.9148308 C100.729,12.7783308 100.631,12.6290308 100.478,12.4669308 C100.324,12.3048308 100.128,12.2195308 99.8889,12.2110308 C99.5903,12.2110308 99.3046,12.3432308 99.0316,12.6076308 C98.7586,12.8721308 98.5453,13.2176308 98.3918,13.644130800000001 C98.1444,14.3181308 97.9695,15.017630800000001 97.8671,15.7427308 C97.8671,15.7683308 97.8671,15.8152308 97.8671,15.8835308 C97.8671,15.9517308 97.86280000000001,16.002930799999998 97.8543,16.0370308 C97.8543,16.420930799999997 97.9311,16.6854308 98.0846,16.8304308 C98.2382,16.975430799999998 98.4216,17.052230799999997 98.6349,17.060730799999998 C98.9591,17.060730799999998 99.279,16.9200308 99.5946,16.638530799999998 C99.9102,16.356930799999997 100.098,16.1394308 100.158,15.9859308 C100.175,15.9517308 100.29,15.4953308 100.503,14.616730800000001 C100.716,13.7380308 100.827,13.264530800000003 100.836,13.1963308 z"
                fill="#ffffff" id="svg_12" fill-opacity="1" />
            <path
                d="M103.382,13.7209308 C103.382,13.6527308 103.421,13.5204308 103.497,13.3242308 C103.574,13.1280308 103.681,12.9062308 103.817,12.6588308 C103.954,12.4114308 104.142,12.198230800000001 104.38,12.0190308 C104.619,11.8399308 104.871,11.7460308 105.135,11.7375308 C105.528,11.7375308 105.822,11.8441308 106.018,12.0574308 C106.215,12.2707308 106.313,12.5223308 106.313,12.8124308 C106.313,12.9659308 106.168,13.4437308 105.878,14.2456308 C105.588,15.0475308 105.442,15.6489308 105.442,16.0498308 C105.442,16.4167308 105.502,16.6726308 105.622,16.8176308 C105.741,16.9626308 105.92,17.039430799999998 106.159,17.0479308 C106.398,17.056530799999997 106.624,16.9840308 106.837,16.8304308 C107.051,16.676930799999997 107.208,16.531830799999998 107.311,16.3953308 L107.451,16.1778308 C107.469,16.1437308 107.631,15.4953308 107.938,14.2328308 C108.194,13.2091308 108.347,12.6119308 108.398,12.441330800000003 C108.45,12.2707308 108.509,12.1470308 108.578,12.070230800000001 C108.723,11.9422308 108.876,11.8783308 109.038,11.8783308 C109.183,11.8783308 109.29,11.9209308 109.358,12.0062308 C109.426,12.091530800000001 109.46,12.1726308 109.46,12.2494308 L108.488,16.318630799999998 C108.479,16.361230799999998 108.475,16.429530800000002 108.475,16.5233308 C108.475,16.736630799999997 108.505,16.8773308 108.565,16.9456308 C108.624,17.013830799999997 108.714,17.052230799999997 108.833,17.060730799999998 C109.021,17.035130799999997 109.17,16.9029308 109.281,16.6641308 C109.392,16.425230799999998 109.52,16.0498308 109.665,15.5380308 C109.682,15.4697308 109.768,15.4356308 109.921,15.4356308 C110.083,15.4356308 110.164,15.4740308 110.164,15.5508308 C110.156,15.5934308 110.147,15.653230800000001 110.139,15.7299308 C110.13,15.8067308 110.092,15.9432308 110.024,16.1394308 C109.955,16.335630799999997 109.883,16.5190308 109.806,16.6897308 C109.729,16.8603308 109.623,17.0224308 109.486,17.1759308 C109.35,17.329530799999997 109.196,17.436130799999997 109.025,17.4958308 C108.957,17.5129308 108.855,17.521430799999997 108.718,17.521430799999997 C108.155,17.521430799999997 107.767,17.2825308 107.554,16.804830799999998 C107.537,16.8133308 107.49,16.8560308 107.413,16.932830799999998 C107.336,17.0096308 107.26,17.073530799999997 107.183,17.1247308 C107.106,17.1759308 107.012,17.2399308 106.901,17.316730800000002 C106.79,17.393430799999997 106.667,17.4446308 106.53,17.4702308 C106.394,17.4958308 106.249,17.517130799999997 106.095,17.5342308 C105.72,17.5342308 105.387,17.457430799999997 105.097,17.3039308 C104.653,17.039430799999998 104.432,16.5873308 104.432,15.947530800000001 C104.432,15.461230800000001 104.581,14.8257308 104.879,14.0408308 C105.178,13.2560308 105.327,12.756930800000001 105.327,12.5437308 C105.327,12.535130800000001 105.327,12.5266308 105.327,12.5181308 C105.327,12.441330800000003 105.327,12.3901308 105.327,12.3645308 C105.327,12.3389308 105.31,12.3091308 105.276,12.2749308 C105.242,12.2408308 105.195,12.2238308 105.135,12.2238308 H105.084 C104.888,12.2238308 104.709,12.3048308 104.547,12.4669308 C104.385,12.6290308 104.257,12.8039308 104.163,12.9915308 C104.069,13.179230800000001 103.997,13.3584308 103.945,13.529030800000001 C103.894,13.6996308 103.86,13.7934308 103.843,13.8105308 C103.826,13.8276308 103.758,13.836130800000001 103.638,13.836130800000001 H103.459 C103.408,13.7849308 103.382,13.7465308 103.382,13.7209308 z"
                fill="#ffffff" id="svg_13" fill-opacity="1" />
            <path
                d="M112.109,13.6953308 C112.109,13.422330800000001 112.178,13.1451308 112.314,12.863630800000001 C112.451,12.5821308 112.68900000000001,12.3219308 113.031,12.0830308 C113.372,11.8441308 113.786,11.7290308 114.272,11.7375308 C114.801,11.7375308 115.185,11.8527308 115.424,12.0830308 C115.662,12.313330800000001 115.786,12.5693308 115.795,12.8508308 C115.795,13.1238308 115.722,13.3242308 115.577,13.4522308 C115.432,13.5802308 115.27,13.6484308 115.091,13.6569308 C114.98,13.6569308 114.878,13.622830800000001 114.784,13.5546308 C114.69,13.486330800000001 114.639,13.3754308 114.63,13.2219308 C114.63,13.085430800000001 114.669,12.9659308 114.745,12.863630800000001 C114.822,12.7612308 114.895,12.6844308 114.963,12.6332308 C115.031,12.5821308 115.087,12.5565308 115.129,12.5565308 C115.138,12.5565308 115.142,12.5522308 115.142,12.5437308 C115.142,12.5181308 115.112,12.4797308 115.052,12.4285308 C114.993,12.377330800000003 114.886,12.3304308 114.733,12.2877308 C114.579,12.2451308 114.413,12.2195308 114.234,12.2110308 C113.824,12.2110308 113.525,12.3219308 113.338,12.5437308 C113.15,12.7655308 113.052,12.9915308 113.043,13.2219308 C113.043,13.4351308 113.124,13.5844308 113.287,13.6697308 C113.449,13.7550308 113.683,13.8276308 113.99,13.8873308 C114.297,13.9470308 114.519,14.0110308 114.656,14.0792308 C115.219,14.3266308 115.5,14.7361308 115.5,15.3077308 C115.5,15.546530800000001 115.453,15.7854308 115.36,16.024230799999998 C115.266,16.2631308 115.125,16.5020308 114.937,16.740830799999998 C114.75,16.9797308 114.481,17.167430799999998 114.131,17.3039308 C113.781,17.440430799999998 113.38,17.5129308 112.928,17.521430799999997 C112.271,17.521430799999997 111.806,17.397730799999998 111.533,17.1503308 C111.261,16.9029308 111.12,16.612930799999997 111.111,16.2802308 C111.111,15.947530800000001 111.201,15.7086308 111.38,15.5636308 C111.559,15.4186308 111.747,15.3460308 111.943,15.3460308 C112.071,15.3460308 112.19,15.3844308 112.301,15.461230800000001 C112.412,15.5380308 112.472,15.6702308 112.48,15.8579308 C112.48,16.0797308 112.404,16.2674308 112.25,16.420930799999997 C112.097,16.574530799999998 111.964,16.6513308 111.853,16.6513308 C111.836,16.659830799999998 111.824,16.6641308 111.815,16.6641308 C111.806,16.6641308 111.802,16.6726308 111.802,16.6896308 C111.811,16.715230799999997 111.845,16.7494308 111.905,16.7920308 C111.964,16.8347308 112.097,16.890130799999998 112.301,16.9584308 C112.506,17.0266308 112.741,17.056530799999997 113.005,17.0479308 C113.312,17.0479308 113.577,17.0010308 113.798,16.907230799999997 C114.02,16.8133308 114.182,16.693930799999997 114.285,16.548930799999997 C114.387,16.403930799999998 114.46,16.271630799999997 114.502,16.152230799999998 C114.545,16.0328308 114.566,15.926130800000001 114.566,15.8323308 C114.566,15.5934308 114.477,15.4143308 114.297,15.2949308 C114.118,15.1754308 113.914,15.102930800000001 113.683,15.0773308 C113.453,15.0517308 113.201,14.9877308 112.928,14.8854308 C112.655,14.7830308 112.455,14.6337308 112.327,14.437530800000003 C112.182,14.2242308 112.109,13.9768308 112.109,13.6953308 z"
                fill="#ffffff" id="svg_14" fill-opacity="1" />
            <path fill-rule="evenodd" clip-rule="evenodd"
                d="M0,42.3162308 H122.176 V-1.0842021724855044e-18 H0 V42.3162308 zM1.21266,41.1036308 V1.2126608 H120.963 V41.1036308 H1.21266 z"
                fill="#ffffff" id="svg_15" fill-opacity="1" />
        </g>
    </g>
</svg>